<?xml version="1.0" encoding="UTF-8" standalone="no"?>
<!DOCTYPE svg PUBLIC "-//W3C//DTD SVG 1.1//EN"
 "http://www.w3.org/Graphics/SVG/1.1/DTD/svg11.dtd">
<!-- Generated by graphviz version 5.0.0 (20220707.1540)
 -->
<!-- Title: UmlClassDiagram Pages: 1 -->
<svg width="746pt" height="1063pt"
 viewBox="0.00 0.00 745.85 1063.00" xmlns="http://www.w3.org/2000/svg" xmlns:xlink="http://www.w3.org/1999/xlink">
<g id="graph0" class="graph" transform="scale(1 1) rotate(0) translate(4 1059)">
<title>UmlClassDiagram</title>
<polygon fill="white" stroke="transparent" points="-4,4 -4,-1059 741.85,-1059 741.85,4 -4,4"/>
<!-- 0 -->
<g id="node1" class="node">
<title>0</title>
<polygon fill="#f2f2f2" stroke="black" points="587.3,-716.7 587.3,-833.5 737.85,-833.5 737.85,-716.7 587.3,-716.7"/>
<text text-anchor="middle" x="662.58" y="-816.9" font-family="Times,serif" font-size="14.00">Constants</text>
<text text-anchor="middle" x="662.58" y="-800.1" font-family="Times,serif" font-size="14.00">Gas.sol</text>
<polyline fill="none" stroke="black" points="587.3,-791.9 737.85,-791.9 "/>
<text text-anchor="start" x="595.3" y="-775.3" font-family="Times,serif" font-size="14.00">Public:</text>
<text text-anchor="start" x="595.3" y="-758.5" font-family="Times,serif" font-size="14.00"> &#160;&#160;tradeFlag: uint256</text>
<text text-anchor="start" x="595.3" y="-741.7" font-family="Times,serif" font-size="14.00"> &#160;&#160;basicFlag: uint256</text>
<text text-anchor="start" x="595.3" y="-724.9" font-family="Times,serif" font-size="14.00"> &#160;&#160;dividendFlag: uint256</text>
</g>
<!-- 2 -->
<g id="node2" class="node">
<title>2</title>
<polygon fill="#f2f2f2" stroke="black" points="0,-904.1 0,-1054.5 115.16,-1054.5 115.16,-904.1 0,-904.1"/>
<text text-anchor="middle" x="57.58" y="-1037.9" font-family="Times,serif" font-size="14.00">&lt;&lt;Enum&gt;&gt;</text>
<text text-anchor="middle" x="57.58" y="-1021.1" font-family="Times,serif" font-size="14.00">PaymentType</text>
<text text-anchor="middle" x="57.58" y="-1004.3" font-family="Times,serif" font-size="14.00">Gas.sol</text>
<polyline fill="none" stroke="black" points="0,-996.1 115.16,-996.1 "/>
<text text-anchor="start" x="8" y="-979.5" font-family="Times,serif" font-size="14.00">Unknown: 0</text>
<text text-anchor="start" x="8" y="-962.7" font-family="Times,serif" font-size="14.00">BasicPayment: 1</text>
<text text-anchor="start" x="8" y="-945.9" font-family="Times,serif" font-size="14.00">Refund: 2</text>
<text text-anchor="start" x="8" y="-929.1" font-family="Times,serif" font-size="14.00">Dividend: 3</text>
<text text-anchor="start" x="8" y="-912.3" font-family="Times,serif" font-size="14.00">GroupPayment: 4</text>
</g>
<!-- 1 -->
<g id="node6" class="node">
<title>1</title>
<polygon fill="#f2f2f2" stroke="black" points="29.87,-0.5 29.87,-646.1 695.29,-646.1 695.29,-0.5 29.87,-0.5"/>
<text text-anchor="middle" x="362.58" y="-629.5" font-family="Times,serif" font-size="14.00">GasContract</text>
<text text-anchor="middle" x="362.58" y="-612.7" font-family="Times,serif" font-size="14.00">Gas.sol</text>
<polyline fill="none" stroke="black" points="29.87,-604.5 695.29,-604.5 "/>
<text text-anchor="start" x="37.87" y="-587.9" font-family="Times,serif" font-size="14.00">Public:</text>
<text text-anchor="start" x="37.87" y="-571.1" font-family="Times,serif" font-size="14.00"> &#160;&#160;totalSupply: uint256</text>
<text text-anchor="start" x="37.87" y="-554.3" font-family="Times,serif" font-size="14.00"> &#160;&#160;paymentCounter: uint256</text>
<text text-anchor="start" x="37.87" y="-537.5" font-family="Times,serif" font-size="14.00"> &#160;&#160;balances: mapping(address=&gt;uint256)</text>
<text text-anchor="start" x="37.87" y="-520.7" font-family="Times,serif" font-size="14.00"> &#160;&#160;tradePercent: uint256</text>
<text text-anchor="start" x="37.87" y="-503.9" font-family="Times,serif" font-size="14.00"> &#160;&#160;contractOwner: address</text>
<text text-anchor="start" x="37.87" y="-487.1" font-family="Times,serif" font-size="14.00"> &#160;&#160;tradeMode: uint256</text>
<text text-anchor="start" x="37.87" y="-470.3" font-family="Times,serif" font-size="14.00"> &#160;&#160;payments: mapping(address=&gt;Payment[])</text>
<text text-anchor="start" x="37.87" y="-453.5" font-family="Times,serif" font-size="14.00"> &#160;&#160;whitelist: mapping(address=&gt;uint256)</text>
<text text-anchor="start" x="37.87" y="-436.7" font-family="Times,serif" font-size="14.00"> &#160;&#160;administrators: address[5]</text>
<text text-anchor="start" x="37.87" y="-419.9" font-family="Times,serif" font-size="14.00"> &#160;&#160;isReady: bool</text>
<text text-anchor="start" x="37.87" y="-403.1" font-family="Times,serif" font-size="14.00"> &#160;&#160;defaultPayment: PaymentType</text>
<text text-anchor="start" x="37.87" y="-386.3" font-family="Times,serif" font-size="14.00"> &#160;&#160;paymentHistory: History[]</text>
<text text-anchor="start" x="37.87" y="-369.5" font-family="Times,serif" font-size="14.00"> &#160;&#160;wasLastOdd: uint256</text>
<text text-anchor="start" x="37.87" y="-352.7" font-family="Times,serif" font-size="14.00"> &#160;&#160;isOddWhitelistUser: mapping(address=&gt;uint256)</text>
<text text-anchor="start" x="37.87" y="-335.9" font-family="Times,serif" font-size="14.00"> &#160;&#160;whiteListStruct: mapping(address=&gt;ImportantStruct)</text>
<polyline fill="none" stroke="black" points="29.87,-327.7 695.29,-327.7 "/>
<text text-anchor="start" x="37.87" y="-311.1" font-family="Times,serif" font-size="14.00">Public:</text>
<text text-anchor="start" x="37.87" y="-294.3" font-family="Times,serif" font-size="14.00"> &#160;&#160;&#160;&lt;&lt;payable&gt;&gt; getPaymentHistory(): (paymentHistory_: History[])</text>
<text text-anchor="start" x="37.87" y="-277.5" font-family="Times,serif" font-size="14.00"> &#160;&#160;&#160;&lt;&lt;event&gt;&gt; AddedToWhitelist(userAddress: address, tier: uint256)</text>
<text text-anchor="start" x="37.87" y="-260.7" font-family="Times,serif" font-size="14.00"> &#160;&#160;&#160;&lt;&lt;event&gt;&gt; supplyChanged(address, uint256)</text>
<text text-anchor="start" x="37.87" y="-243.9" font-family="Times,serif" font-size="14.00"> &#160;&#160;&#160;&lt;&lt;event&gt;&gt; Transfer(recipient: address, amount: uint256)</text>
<text text-anchor="start" x="37.87" y="-227.1" font-family="Times,serif" font-size="14.00"> &#160;&#160;&#160;&lt;&lt;event&gt;&gt; PaymentUpdated(admin: address, ID: uint256, amount: uint256, recipient: string)</text>
<text text-anchor="start" x="37.87" y="-210.3" font-family="Times,serif" font-size="14.00"> &#160;&#160;&#160;&lt;&lt;event&gt;&gt; WhiteListTransfer(address)</text>
<text text-anchor="start" x="37.87" y="-193.5" font-family="Times,serif" font-size="14.00"> &#160;&#160;&#160;&lt;&lt;modifier&gt;&gt; onlyAdminOrOwner()</text>
<text text-anchor="start" x="37.87" y="-176.7" font-family="Times,serif" font-size="14.00"> &#160;&#160;&#160;&lt;&lt;modifier&gt;&gt; checkIfWhiteListed(sender: address)</text>
<text text-anchor="start" x="37.87" y="-159.9" font-family="Times,serif" font-size="14.00"> &#160;&#160;&#160;constructor(_admins: address[], _totalSupply: uint256)</text>
<text text-anchor="start" x="37.87" y="-143.1" font-family="Times,serif" font-size="14.00"> &#160;&#160;&#160;checkForAdmin(_user: address): (admin_: bool)</text>
<text text-anchor="start" x="37.87" y="-126.3" font-family="Times,serif" font-size="14.00"> &#160;&#160;&#160;balanceOf(_user: address): (balance_: uint256)</text>
<text text-anchor="start" x="37.87" y="-109.5" font-family="Times,serif" font-size="14.00"> &#160;&#160;&#160;getTradingMode(): (mode_: bool)</text>
<text text-anchor="start" x="37.87" y="-92.7" font-family="Times,serif" font-size="14.00"> &#160;&#160;&#160;addHistory(_updateAddress: address, _tradeMode: bool): (status_: bool, tradeMode_: bool)</text>
<text text-anchor="start" x="37.87" y="-75.9" font-family="Times,serif" font-size="14.00"> &#160;&#160;&#160;getPayments(_user: address): (payments_: Payment[])</text>
<text text-anchor="start" x="37.87" y="-59.1" font-family="Times,serif" font-size="14.00"> &#160;&#160;&#160;transfer(_recipient: address, _amount: uint256, _name: string): (status_: bool)</text>
<text text-anchor="start" x="37.87" y="-42.3" font-family="Times,serif" font-size="14.00"> &#160;&#160;&#160;updatePayment(_user: address, _ID: uint256, _amount: uint256, _type: PaymentType) &lt;&lt;onlyAdminOrOwner&gt;&gt;</text>
<text text-anchor="start" x="37.87" y="-25.5" font-family="Times,serif" font-size="14.00"> &#160;&#160;&#160;addToWhitelist(_userAddrs: address, _tier: uint256) &lt;&lt;onlyAdminOrOwner&gt;&gt;</text>
<text text-anchor="start" x="37.87" y="-8.7" font-family="Times,serif" font-size="14.00"> &#160;&#160;&#160;whiteTransfer(_recipient: address, _amount: uint256, _struct: ImportantStruct) &lt;&lt;checkIfWhiteListed&gt;&gt;</text>
</g>
<!-- 2&#45;&gt;1 -->
<g id="edge2" class="edge">
<title>2&#45;&gt;1</title>
<path fill="none" stroke="black" d="M60.59,-903.96C61.49,-842.51 66.35,-754.06 94.58,-682.6 97.94,-674.08 101.57,-665.6 105.44,-657.16"/>
<polygon fill="black" stroke="black" points="105.54,-656.96 104.48,-649.82 110.66,-646.1 111.72,-653.24 105.54,-656.96"/>
</g>
<!-- 3 -->
<g id="node3" class="node">
<title>3</title>
<polygon fill="#f2f2f2" stroke="black" points="94.52,-683.1 94.52,-867.1 272.64,-867.1 272.64,-683.1 94.52,-683.1"/>
<text text-anchor="middle" x="183.58" y="-850.5" font-family="Times,serif" font-size="14.00">&lt;&lt;Struct&gt;&gt;</text>
<text text-anchor="middle" x="183.58" y="-833.7" font-family="Times,serif" font-size="14.00">Payment</text>
<text text-anchor="middle" x="183.58" y="-816.9" font-family="Times,serif" font-size="14.00">Gas.sol</text>
<polyline fill="none" stroke="black" points="94.52,-808.7 272.64,-808.7 "/>
<text text-anchor="start" x="102.52" y="-792.1" font-family="Times,serif" font-size="14.00">paymentType: PaymentType</text>
<text text-anchor="start" x="102.52" y="-775.3" font-family="Times,serif" font-size="14.00">paymentID: uint256</text>
<text text-anchor="start" x="102.52" y="-758.5" font-family="Times,serif" font-size="14.00">adminUpdated: bool</text>
<text text-anchor="start" x="102.52" y="-741.7" font-family="Times,serif" font-size="14.00">recipientName: string</text>
<text text-anchor="start" x="102.52" y="-724.9" font-family="Times,serif" font-size="14.00">recipient: address</text>
<text text-anchor="start" x="102.52" y="-708.1" font-family="Times,serif" font-size="14.00">admin: address</text>
<text text-anchor="start" x="102.52" y="-691.3" font-family="Times,serif" font-size="14.00">amount: uint256</text>
</g>
<!-- 3&#45;&gt;2 -->
<g id="edge1" class="edge">
<title>3&#45;&gt;2</title>
<path fill="none" stroke="black" stroke-dasharray="5,2" d="M126.84,-867.14C121.05,-876.44 115.19,-885.85 109.45,-895.05"/>
<polygon fill="black" stroke="black" points="106.32,-893.47 104,-903.8 112.26,-897.17 106.32,-893.47"/>
</g>
<!-- 3&#45;&gt;1 -->
<g id="edge3" class="edge">
<title>3&#45;&gt;1</title>
<path fill="none" stroke="black" d="M225.45,-682.85C228.85,-674.7 232.39,-666.2 236.02,-657.4"/>
<polygon fill="black" stroke="black" points="236.1,-657.2 234.69,-650.13 240.67,-646.11 242.08,-653.18 236.1,-657.2"/>
</g>
<!-- 4 -->
<g id="node4" class="node">
<title>4</title>
<polygon fill="#f2f2f2" stroke="black" points="291,-716.7 291,-833.5 434.15,-833.5 434.15,-716.7 291,-716.7"/>
<text text-anchor="middle" x="362.58" y="-816.9" font-family="Times,serif" font-size="14.00">&lt;&lt;Struct&gt;&gt;</text>
<text text-anchor="middle" x="362.58" y="-800.1" font-family="Times,serif" font-size="14.00">History</text>
<text text-anchor="middle" x="362.58" y="-783.3" font-family="Times,serif" font-size="14.00">Gas.sol</text>
<polyline fill="none" stroke="black" points="291,-775.1 434.15,-775.1 "/>
<text text-anchor="start" x="299" y="-758.5" font-family="Times,serif" font-size="14.00">lastUpdate: uint256</text>
<text text-anchor="start" x="299" y="-741.7" font-family="Times,serif" font-size="14.00">updatedBy: address</text>
<text text-anchor="start" x="299" y="-724.9" font-family="Times,serif" font-size="14.00">blockNumber: uint256</text>
</g>
<!-- 4&#45;&gt;1 -->
<g id="edge4" class="edge">
<title>4&#45;&gt;1</title>
<path fill="none" stroke="black" d="M367.27,-716.43C367.81,-699.55 368.24,-679.77 368.57,-658.24"/>
<polygon fill="black" stroke="black" points="368.57,-658.11 364.65,-652.05 368.74,-646.11 372.65,-652.16 368.57,-658.11"/>
</g>
<!-- 5 -->
<g id="node5" class="node">
<title>5</title>
<polygon fill="#f2f2f2" stroke="black" points="451.83,-716.7 451.83,-833.5 569.32,-833.5 569.32,-716.7 451.83,-716.7"/>
<text text-anchor="middle" x="510.58" y="-816.9" font-family="Times,serif" font-size="14.00">&lt;&lt;Struct&gt;&gt;</text>
<text text-anchor="middle" x="510.58" y="-800.1" font-family="Times,serif" font-size="14.00">ImportantStruct</text>
<text text-anchor="middle" x="510.58" y="-783.3" font-family="Times,serif" font-size="14.00">Gas.sol</text>
<polyline fill="none" stroke="black" points="451.83,-775.1 569.32,-775.1 "/>
<text text-anchor="start" x="459.83" y="-758.5" font-family="Times,serif" font-size="14.00">valueA: uint256</text>
<text text-anchor="start" x="459.83" y="-741.7" font-family="Times,serif" font-size="14.00">bigValue: uint256</text>
<text text-anchor="start" x="459.83" y="-724.9" font-family="Times,serif" font-size="14.00">valueB: uint256</text>
</g>
<!-- 5&#45;&gt;1 -->
<g id="edge5" class="edge">
<title>5&#45;&gt;1</title>
<path fill="none" stroke="black" d="M496.3,-716.43C491.23,-699.39 485.09,-679.41 478.26,-657.65"/>
<polygon fill="black" stroke="black" points="478.23,-657.55 472.61,-653.03 474.62,-646.11 480.24,-650.63 478.23,-657.55"/>
</g>
<!-- 1&#45;&gt;0 -->
<g id="edge6" class="edge">
<title>1&#45;&gt;0</title>
<path fill="none" stroke="black" d="M577.21,-646.11C587.88,-662.1 598.01,-677.29 607.31,-691.24"/>
<polygon fill="none" stroke="black" points="598.73,-697.3 624.11,-716.43 616.2,-685.65 598.73,-697.3"/>
</g>
<!-- 1&#45;&gt;2 -->
<g id="edge7" class="edge">
<title>1&#45;&gt;2</title>
<path fill="none" stroke="black" d="M92.66,-646.1C86.81,-658.17 81.42,-670.35 76.58,-682.6 49.89,-750.15 44.09,-832.88 45.78,-893.64"/>
<polygon fill="black" stroke="black" points="42.29,-894.09 46.14,-903.96 49.29,-893.84 42.29,-894.09"/>
</g>
<!-- 1&#45;&gt;3 -->
<g id="edge10" class="edge">
<title>1&#45;&gt;3</title>
<path fill="none" stroke="black" stroke-dasharray="5,2" d="M228.35,-646.11C224.72,-655.54 221.22,-664.69 217.89,-673.47"/>
<polygon fill="black" stroke="black" points="214.61,-672.25 214.34,-682.85 221.15,-674.73 214.61,-672.25"/>
</g>
<!-- 1&#45;&gt;4 -->
<g id="edge8" class="edge">
<title>1&#45;&gt;4</title>
<path fill="none" stroke="black" d="M356.42,-646.11C356.7,-668.05 357.09,-688.46 357.58,-706.26"/>
<polygon fill="black" stroke="black" points="354.09,-706.54 357.88,-716.43 361.08,-706.33 354.09,-706.54"/>
</g>
<!-- 1&#45;&gt;5 -->
<g id="edge9" class="edge">
<title>1&#45;&gt;5</title>
<path fill="none" stroke="black" d="M462.3,-646.11C469.88,-668.25 477.05,-688.85 483.44,-706.76"/>
<polygon fill="black" stroke="black" points="480.24,-708.2 486.91,-716.43 486.82,-705.84 480.24,-708.2"/>
</g>
</g>
</svg>
